<svg id="visual" viewBox="0 0 900 600" width="900" height="600" xmlns="http://www.w3.org/2000/svg" xmlns:xlink="http://www.w3.org/1999/xlink" version="1.1"><g stroke-width="1" stroke-linejoin="bevel"><path d="M437 294.1L407 309.9L430 329Z" fill="#00447a" stroke="#00447a"></path><path d="M430 329L471 295L437 294.1Z" fill="#003e79" stroke="#003e79"></path><path d="M407 309.9L386 339L430 329Z" fill="#004c7a" stroke="#004c7a"></path><path d="M443 365.7L481 326.9L430 329Z" fill="#00477a" stroke="#00477a"></path><path d="M430 329L481 326.9L471 295Z" fill="#00417a" stroke="#00417a"></path><path d="M386 339L443 365.7L430 329Z" fill="#00477a" stroke="#00477a"></path><path d="M344 319.9L378 347.7L386 339Z" fill="#004c7a" stroke="#004c7a"></path><path d="M386 339L378 347.7L443 365.7Z" fill="#003e79" stroke="#003e79"></path><path d="M514 350.9L504 323L481 326.9Z" fill="#00447a" stroke="#00447a"></path><path d="M481 326.9L504 323L471 295Z" fill="#005478" stroke="#005478"></path><path d="M439 198.4L365 257.1L437 294.1Z" fill="#003b79" stroke="#003b79"></path><path d="M437 294.1L365 257.1L407 309.9Z" fill="#003e79" stroke="#003e79"></path><path d="M407 309.9L344 319.9L386 339Z" fill="#003b79" stroke="#003b79"></path><path d="M504 323L490 258.1L471 295Z" fill="#00477a" stroke="#00477a"></path><path d="M471 295L490 258.1L437 294.1Z" fill="#004f79" stroke="#004f79"></path><path d="M365 257.1L344 319.9L407 309.9Z" fill="#003b79" stroke="#003b79"></path><path d="M380 393.7L443 365.7L378 347.7Z" fill="#003b79" stroke="#003b79"></path><path d="M380 393.7L437 397.6L443 365.7Z" fill="#004f79" stroke="#004f79"></path><path d="M443 365.7L514 350.9L481 326.9Z" fill="#00447a" stroke="#00447a"></path><path d="M336 374.7L380 393.7L378 347.7Z" fill="#004c7a" stroke="#004c7a"></path><path d="M495 397.6L514 350.9L443 365.7Z" fill="#00417a" stroke="#00417a"></path><path d="M523 240.1L499 236.3L490 258.1Z" fill="#003e79" stroke="#003e79"></path><path d="M523 240.1L490 258.1L504 323Z" fill="#00417a" stroke="#00417a"></path><path d="M490 258.1L439 198.4L437 294.1Z" fill="#005478" stroke="#005478"></path><path d="M322 286.1L323 321L344 319.9Z" fill="#003878" stroke="#003878"></path><path d="M344 319.9L336 374.7L378 347.7Z" fill="#004c7a" stroke="#004c7a"></path><path d="M380 393.7L442 414.6L437 397.6Z" fill="#003878" stroke="#003878"></path><path d="M437 397.6L495 397.6L443 365.7Z" fill="#004f79" stroke="#004f79"></path><path d="M365 257.1L322 286.1L344 319.9Z" fill="#003b79" stroke="#003b79"></path><path d="M365 257.1L322 276L322 286.1Z" fill="#003b79" stroke="#003b79"></path><path d="M323 321L336 374.7L344 319.9Z" fill="#00447a" stroke="#00447a"></path><path d="M442 414.6L495 397.6L437 397.6Z" fill="#005478" stroke="#005478"></path><path d="M499 236.3L439 198.4L490 258.1Z" fill="#004c7a" stroke="#004c7a"></path><path d="M365 257.1L336 234.3L322 276Z" fill="#004a7a" stroke="#004a7a"></path><path d="M345 198.4L336 234.3L365 257.1Z" fill="#004f79" stroke="#004f79"></path><path d="M560 250.1L523 240.1L504 323Z" fill="#003e79" stroke="#003e79"></path><path d="M445 179.3L433 188.3L439 198.4Z" fill="#00477a" stroke="#00477a"></path><path d="M323 321L324 372.9L336 374.7Z" fill="#00477a" stroke="#00477a"></path><path d="M349 439.6L422 452.4L380 393.7Z" fill="#003878" stroke="#003878"></path><path d="M295 315L324 372.9L323 321Z" fill="#005279" stroke="#005279"></path><path d="M442 414.6L497 408.7L495 397.6Z" fill="#003b79" stroke="#003b79"></path><path d="M495 397.6L551 380.7L514 350.9Z" fill="#005478" stroke="#005478"></path><path d="M445 179.3L439 198.4L505 189.3Z" fill="#003b79" stroke="#003b79"></path><path d="M439 198.4L389 178.4L365 257.1Z" fill="#003878" stroke="#003878"></path><path d="M322 276L306 276.1L322 286.1Z" fill="#00477a" stroke="#00477a"></path><path d="M322 286.1L295 315L323 321Z" fill="#003b79" stroke="#003b79"></path><path d="M336 234.3L306 276.1L322 276Z" fill="#005279" stroke="#005279"></path><path d="M306 276.1L295 315L322 286.1Z" fill="#003b79" stroke="#003b79"></path><path d="M505 189.3L439 198.4L499 236.3Z" fill="#00477a" stroke="#00477a"></path><path d="M433 188.3L389 178.4L439 198.4Z" fill="#003878" stroke="#003878"></path><path d="M445 179.3L389 178.4L433 188.3Z" fill="#00477a" stroke="#00477a"></path><path d="M389 178.4L345 198.4L365 257.1Z" fill="#004f79" stroke="#004f79"></path><path d="M336 234.3L281 277.1L306 276.1Z" fill="#00477a" stroke="#00477a"></path><path d="M345 198.4L334 206.4L336 234.3Z" fill="#003878" stroke="#003878"></path><path d="M349 439.6L380 393.7L336 374.7Z" fill="#004a7a" stroke="#004a7a"></path><path d="M380 393.7L422 452.4L442 414.6Z" fill="#004a7a" stroke="#004a7a"></path><path d="M442 414.6L456 478.3L497 408.7Z" fill="#00477a" stroke="#00477a"></path><path d="M497 408.7L551 380.7L495 397.6Z" fill="#005279" stroke="#005279"></path><path d="M594 279L560 250.1L504 323Z" fill="#00477a" stroke="#00477a"></path><path d="M539 442.6L551 380.7L497 408.7Z" fill="#003878" stroke="#003878"></path><path d="M516 189.4L505 189.3L499 236.3Z" fill="#004f79" stroke="#004f79"></path><path d="M285 157.6L330 200.3L345 198.4Z" fill="#004f79" stroke="#004f79"></path><path d="M345 198.4L330 200.3L334 206.4Z" fill="#00447a" stroke="#00447a"></path><path d="M334 206.4L330 200.3L336 234.3Z" fill="#003e79" stroke="#003e79"></path><path d="M571 355.9L504 323L514 350.9Z" fill="#004a7a" stroke="#004a7a"></path><path d="M523 240.1L516 189.4L499 236.3Z" fill="#004a7a" stroke="#004a7a"></path><path d="M551 380.7L559 372.7L514 350.9Z" fill="#004c7a" stroke="#004c7a"></path><path d="M269 194.4L281 277.1L336 234.3Z" fill="#004f79" stroke="#004f79"></path><path d="M306 276.1L281 277.1L295 315Z" fill="#003878" stroke="#003878"></path><path d="M560 250.1L516 189.4L523 240.1Z" fill="#005478" stroke="#005478"></path><path d="M505 189.3L459 160.4L445 179.3Z" fill="#00417a" stroke="#00417a"></path><path d="M291 395.6L336 374.7L324 372.9Z" fill="#00417a" stroke="#00417a"></path><path d="M289 418.7L349 439.6L336 374.7Z" fill="#004c7a" stroke="#004c7a"></path><path d="M559 372.7L571 355.9L514 350.9Z" fill="#004c7a" stroke="#004c7a"></path><path d="M475 128.6L459 160.4L505 189.3Z" fill="#004f79" stroke="#004f79"></path><path d="M445 179.3L443 122.7L389 178.4Z" fill="#005478" stroke="#005478"></path><path d="M271 381.9L324 372.9L295 315Z" fill="#00477a" stroke="#00477a"></path><path d="M271 381.9L291 395.6L324 372.9Z" fill="#00447a" stroke="#00447a"></path><path d="M571 355.9L594 279L504 323Z" fill="#003b79" stroke="#003b79"></path><path d="M560 152.4L526 165.6L516 189.4Z" fill="#00447a" stroke="#00447a"></path><path d="M459 482.4L456 478.3L403 504.3Z" fill="#003878" stroke="#003878"></path><path d="M422 452.4L456 478.3L442 414.6Z" fill="#003b79" stroke="#003b79"></path><path d="M551 380.7L607 386.7L559 372.7Z" fill="#003878" stroke="#003878"></path><path d="M250 374.9L271 381.9L295 315Z" fill="#00477a" stroke="#00477a"></path><path d="M291 395.6L289 418.7L336 374.7Z" fill="#00447a" stroke="#00447a"></path><path d="M456 478.3L529 449.4L497 408.7Z" fill="#004a7a" stroke="#004a7a"></path><path d="M559 372.7L607 386.7L571 355.9Z" fill="#003e79" stroke="#003e79"></path><path d="M529 449.4L539 442.6L497 408.7Z" fill="#005478" stroke="#005478"></path><path d="M238 256.1L255 277L240 236.3Z" fill="#003878" stroke="#003878"></path><path d="M281 277.1L255 277L295 315Z" fill="#004c7a" stroke="#004c7a"></path><path d="M271 381.9L289 418.7L291 395.6Z" fill="#004c7a" stroke="#004c7a"></path><path d="M403 504.3L456 478.3L422 452.4Z" fill="#003878" stroke="#003878"></path><path d="M403 504.3L422 452.4L354 498.4Z" fill="#003b79" stroke="#003b79"></path><path d="M456 478.3L459 482.4L529 449.4Z" fill="#004c7a" stroke="#004c7a"></path><path d="M560 152.4L516 189.4L560 250.1Z" fill="#00477a" stroke="#00477a"></path><path d="M516 189.4L526 165.6L505 189.3Z" fill="#004f79" stroke="#004f79"></path><path d="M636 347.9L610 313.9L571 355.9Z" fill="#005478" stroke="#005478"></path><path d="M571 355.9L610 313.9L594 279Z" fill="#00477a" stroke="#00477a"></path><path d="M271 381.9L278 435.6L289 418.7Z" fill="#003878" stroke="#003878"></path><path d="M255 277L250 374.9L295 315Z" fill="#004c7a" stroke="#004c7a"></path><path d="M526 165.6L475 128.6L505 189.3Z" fill="#004a7a" stroke="#004a7a"></path><path d="M459 160.4L443 122.7L445 179.3Z" fill="#004a7a" stroke="#004a7a"></path><path d="M389 178.4L383 121.7L345 198.4Z" fill="#00447a" stroke="#00447a"></path><path d="M475 128.6L443 122.7L459 160.4Z" fill="#004c7a" stroke="#004c7a"></path><path d="M443 122.7L383 121.7L389 178.4Z" fill="#004a7a" stroke="#004a7a"></path><path d="M330 200.3L269 194.4L336 234.3Z" fill="#004a7a" stroke="#004a7a"></path><path d="M250 374.9L278 435.6L271 381.9Z" fill="#004f79" stroke="#004f79"></path><path d="M289 418.7L278 435.6L349 439.6Z" fill="#005478" stroke="#005478"></path><path d="M285 157.6L269 194.4L330 200.3Z" fill="#00447a" stroke="#00447a"></path><path d="M354 498.4L422 452.4L349 439.6Z" fill="#003e79" stroke="#003e79"></path><path d="M240 236.3L255 277L281 277.1Z" fill="#003878" stroke="#003878"></path><path d="M255 277L179 314L250 374.9Z" fill="#005478" stroke="#005478"></path><path d="M539 442.6L607 386.7L551 380.7Z" fill="#003878" stroke="#003878"></path><path d="M443 122.7L384 116.6L383 121.7Z" fill="#004a7a" stroke="#004a7a"></path><path d="M383 121.7L285 157.6L345 198.4Z" fill="#00477a" stroke="#00477a"></path><path d="M269 194.4L240 236.3L281 277.1Z" fill="#005478" stroke="#005478"></path><path d="M320 495.3L354 498.4L349 439.6Z" fill="#005279" stroke="#005279"></path><path d="M605 166.4L560 152.4L560 250.1Z" fill="#005478" stroke="#005478"></path><path d="M526 165.6L511 116.7L475 128.6Z" fill="#004f79" stroke="#004f79"></path><path d="M628 237.3L560 250.1L594 279Z" fill="#004f79" stroke="#004f79"></path><path d="M268 127.6L285 157.6L344 62.7Z" fill="#004f79" stroke="#004f79"></path><path d="M269 194.4L260 181.4L240 236.3Z" fill="#00477a" stroke="#00477a"></path><path d="M639 334.9L635 299L610 313.9Z" fill="#00477a" stroke="#00477a"></path><path d="M610 313.9L635 299L594 279Z" fill="#004f79" stroke="#004f79"></path><path d="M285 157.6L260 181.4L269 194.4Z" fill="#005279" stroke="#005279"></path><path d="M560 152.4L511 116.7L526 165.6Z" fill="#004f79" stroke="#004f79"></path><path d="M444 94.6L432 95.7L443 122.7Z" fill="#004a7a" stroke="#004a7a"></path><path d="M443 122.7L432 95.7L384 116.6Z" fill="#00447a" stroke="#00447a"></path><path d="M607 386.7L636 347.9L571 355.9Z" fill="#003878" stroke="#003878"></path><path d="M293 487.4L320 495.3L349 439.6Z" fill="#004f79" stroke="#004f79"></path><path d="M420 543.1L466 529.3L403 504.3Z" fill="#004a7a" stroke="#004a7a"></path><path d="M636 347.9L639 334.9L610 313.9Z" fill="#00417a" stroke="#00417a"></path><path d="M466 529.3L500 511.3L459 482.4Z" fill="#003e79" stroke="#003e79"></path><path d="M459 482.4L500 511.3L529 449.4Z" fill="#004a7a" stroke="#004a7a"></path><path d="M563 507.4L598 460.4L539 442.6Z" fill="#005478" stroke="#005478"></path><path d="M539 442.6L598 460.4L607 386.7Z" fill="#00417a" stroke="#00417a"></path><path d="M444 94.6L443 122.7L475 128.6Z" fill="#004f79" stroke="#004f79"></path><path d="M344 62.7L285 157.6L383 121.7Z" fill="#004a7a" stroke="#004a7a"></path><path d="M635 299L628 237.3L594 279Z" fill="#003b79" stroke="#003b79"></path><path d="M512 104.6L444 94.6L475 128.6Z" fill="#004f79" stroke="#004f79"></path><path d="M292 500.4L293 487.4L231 454.6Z" fill="#00417a" stroke="#00417a"></path><path d="M278 435.6L293 487.4L349 439.6Z" fill="#004a7a" stroke="#004a7a"></path><path d="M563 109.6L512 104.6L511 116.7Z" fill="#004a7a" stroke="#004a7a"></path><path d="M511 116.7L512 104.6L475 128.6Z" fill="#005279" stroke="#005279"></path><path d="M403 504.3L466 529.3L459 482.4Z" fill="#005478" stroke="#005478"></path><path d="M420 543.1L403 504.3L397 547.3Z" fill="#005279" stroke="#005279"></path><path d="M635 299L640 233.1L628 237.3Z" fill="#003b79" stroke="#003b79"></path><path d="M620 176.3L605 166.4L560 250.1Z" fill="#004a7a" stroke="#004a7a"></path><path d="M655 203.4L640 233.1L693 210.3Z" fill="#003b79" stroke="#003b79"></path><path d="M619 451.6L598 460.4L609 489.3Z" fill="#005279" stroke="#005279"></path><path d="M563 507.4L539 442.6L529 449.4Z" fill="#003e79" stroke="#003e79"></path><path d="M607 386.7L699 412.7L636 347.9Z" fill="#003b79" stroke="#003b79"></path><path d="M620 176.3L560 250.1L628 237.3Z" fill="#004c7a" stroke="#004c7a"></path><path d="M560 152.4L563 109.6L511 116.7Z" fill="#005478" stroke="#005478"></path><path d="M293 487.4L292 500.4L320 495.3Z" fill="#005279" stroke="#005279"></path><path d="M322 526.1L397 547.3L354 498.4Z" fill="#003878" stroke="#003878"></path><path d="M231 454.6L293 487.4L278 435.6Z" fill="#004c7a" stroke="#004c7a"></path><path d="M397 547.3L403 504.3L354 498.4Z" fill="#003e79" stroke="#003e79"></path><path d="M640 233.1L620 176.3L628 237.3Z" fill="#003878" stroke="#003878"></path><path d="M605 166.4L563 109.6L560 152.4Z" fill="#004f79" stroke="#004f79"></path><path d="M322 526.1L354 498.4L320 495.3Z" fill="#004f79" stroke="#004f79"></path><path d="M563 507.4L529 449.4L500 511.3Z" fill="#005279" stroke="#005279"></path><path d="M598 460.4L619 451.6L607 386.7Z" fill="#004f79" stroke="#004f79"></path><path d="M690 282.1L683 279.1L703 300Z" fill="#004c7a" stroke="#004c7a"></path><path d="M292 500.4L322 526.1L320 495.3Z" fill="#004c7a" stroke="#004c7a"></path><path d="M563 550.1L500 511.3L493 586.1Z" fill="#004f79" stroke="#004f79"></path><path d="M563 550.1L563 507.4L500 511.3Z" fill="#005478" stroke="#005478"></path><path d="M344 62.7L383 121.7L384 116.6Z" fill="#00447a" stroke="#00447a"></path><path d="M285 157.6L264 129.6L260 181.4Z" fill="#00477a" stroke="#00477a"></path><path d="M188 188.3L190 217.3L240 236.3Z" fill="#004a7a" stroke="#004a7a"></path><path d="M592 95.7L563 109.6L605 166.4Z" fill="#003e79" stroke="#003e79"></path><path d="M510 51.9L411 65.9L444 94.6Z" fill="#00477a" stroke="#00477a"></path><path d="M268 127.6L264 129.6L285 157.6Z" fill="#003878" stroke="#003878"></path><path d="M197 404.7L231 454.6L250 374.9Z" fill="#005279" stroke="#005279"></path><path d="M250 374.9L231 454.6L278 435.6Z" fill="#005478" stroke="#005478"></path><path d="M284 541.3L308 554.1L322 526.1Z" fill="#003e79" stroke="#003e79"></path><path d="M444 94.6L411 65.9L432 95.7Z" fill="#003e79" stroke="#003e79"></path><path d="M432 95.7L411 65.9L384 116.6Z" fill="#003878" stroke="#003878"></path><path d="M510 51.9L444 94.6L512 104.6Z" fill="#00477a" stroke="#00477a"></path><path d="M153 288.1L179 314L238 256.1Z" fill="#00417a" stroke="#00417a"></path><path d="M238 256.1L179 314L255 277Z" fill="#004a7a" stroke="#004a7a"></path><path d="M190 217.3L238 256.1L240 236.3Z" fill="#00447a" stroke="#00447a"></path><path d="M194 398.7L197 404.7L250 374.9Z" fill="#00477a" stroke="#00477a"></path><path d="M160 351.9L194 398.7L250 374.9Z" fill="#003b79" stroke="#003b79"></path><path d="M640 233.1L655 203.4L620 176.3Z" fill="#004a7a" stroke="#004a7a"></path><path d="M620 176.3L639 147.6L605 166.4Z" fill="#005478" stroke="#005478"></path><path d="M683 279.1L640 233.1L635 299Z" fill="#003e79" stroke="#003e79"></path><path d="M188 188.3L240 236.3L260 181.4Z" fill="#00477a" stroke="#00477a"></path><path d="M397 547.3L404 563.1L420 543.1Z" fill="#004a7a" stroke="#004a7a"></path><path d="M420 543.1L493 586.1L466 529.3Z" fill="#00477a" stroke="#00477a"></path><path d="M376 600L404 563.1L397 547.3Z" fill="#00417a" stroke="#00417a"></path><path d="M411 65.9L381 58.9L384 116.6Z" fill="#00417a" stroke="#00417a"></path><path d="M242 79.9L220 115.7L264 129.6Z" fill="#005478" stroke="#005478"></path><path d="M563 507.4L609 489.3L598 460.4Z" fill="#004c7a" stroke="#004c7a"></path><path d="M635 299L639 334.9L703 300Z" fill="#00447a" stroke="#00447a"></path><path d="M703 300L683 279.1L635 299Z" fill="#004a7a" stroke="#004a7a"></path><path d="M639 334.9L723 358.9L703 300Z" fill="#00417a" stroke="#00417a"></path><path d="M381 58.9L344 62.7L384 116.6Z" fill="#00477a" stroke="#00477a"></path><path d="M656 447.6L607 386.7L619 451.6Z" fill="#00417a" stroke="#00417a"></path><path d="M683 279.1L693 210.3L640 233.1Z" fill="#005478" stroke="#005478"></path><path d="M220 115.7L197 172.4L260 181.4Z" fill="#003878" stroke="#003878"></path><path d="M220 115.7L260 181.4L264 129.6Z" fill="#004f79" stroke="#004f79"></path><path d="M197 172.4L188 188.3L260 181.4Z" fill="#003878" stroke="#003878"></path><path d="M141 331.9L160 351.9L179 314Z" fill="#004f79" stroke="#004f79"></path><path d="M638 497.4L656 447.6L619 451.6Z" fill="#003e79" stroke="#003e79"></path><path d="M710 185.3L639 147.6L655 203.4Z" fill="#003878" stroke="#003878"></path><path d="M655 203.4L639 147.6L620 176.3Z" fill="#003878" stroke="#003878"></path><path d="M381 58.9L369 47.9L344 62.7Z" fill="#003e79" stroke="#003e79"></path><path d="M388 0L369 47.9L381 58.9Z" fill="#003b79" stroke="#003b79"></path><path d="M408 0L381 58.9L411 65.9Z" fill="#003878" stroke="#003878"></path><path d="M153 288.1L238 256.1L150 248.1Z" fill="#00417a" stroke="#00417a"></path><path d="M179 314L160 351.9L250 374.9Z" fill="#00417a" stroke="#00417a"></path><path d="M194 398.7L171 438.4L197 404.7Z" fill="#00447a" stroke="#00447a"></path><path d="M190 507.4L292 500.4L231 454.6Z" fill="#004c7a" stroke="#004c7a"></path><path d="M639 147.6L592 95.7L605 166.4Z" fill="#005478" stroke="#005478"></path><path d="M553 61.7L510 51.9L512 104.6Z" fill="#005478" stroke="#005478"></path><path d="M284 541.3L322 526.1L292 500.4Z" fill="#004f79" stroke="#004f79"></path><path d="M322 526.1L367 600L397 547.3Z" fill="#00417a" stroke="#00417a"></path><path d="M171 438.4L231 454.6L197 404.7Z" fill="#00477a" stroke="#00477a"></path><path d="M190 507.4L284 541.3L292 500.4Z" fill="#00447a" stroke="#00447a"></path><path d="M553 61.7L512 104.6L563 109.6Z" fill="#003e79" stroke="#003e79"></path><path d="M149 287L153 288.1L150 248.1Z" fill="#00447a" stroke="#00447a"></path><path d="M563 507.4L594 560.1L609 489.3Z" fill="#003878" stroke="#003878"></path><path d="M609 489.3L638 497.4L619 451.6Z" fill="#004c7a" stroke="#004c7a"></path><path d="M493 586.1L500 511.3L466 529.3Z" fill="#00447a" stroke="#00447a"></path><path d="M723 358.9L639 334.9L636 347.9Z" fill="#004a7a" stroke="#004a7a"></path><path d="M711 279L693 210.3L683 279.1Z" fill="#004f79" stroke="#004f79"></path><path d="M150 248.1L238 256.1L190 217.3Z" fill="#004c7a" stroke="#004c7a"></path><path d="M153 288.1L141 331.9L179 314Z" fill="#005478" stroke="#005478"></path><path d="M592 95.7L553 61.7L563 109.6Z" fill="#003b79" stroke="#003b79"></path><path d="M647 530.3L638 497.4L636 543.1Z" fill="#004a7a" stroke="#004a7a"></path><path d="M162 201.3L150 248.1L190 217.3Z" fill="#005279" stroke="#005279"></path><path d="M162 201.3L190 217.3L188 188.3Z" fill="#003878" stroke="#003878"></path><path d="M212 111.7L220 115.7L212 79.9Z" fill="#005478" stroke="#005478"></path><path d="M242 79.9L264 129.6L268 127.6Z" fill="#005478" stroke="#005478"></path><path d="M135 160.4L162 201.3L188 188.3Z" fill="#00477a" stroke="#00477a"></path><path d="M486 600L420 543.1L404 563.1Z" fill="#00417a" stroke="#00417a"></path><path d="M486 600L493 586.1L420 543.1Z" fill="#005279" stroke="#005279"></path><path d="M711 279L683 279.1L690 282.1Z" fill="#005478" stroke="#005478"></path><path d="M150 391.6L194 398.7L160 351.9Z" fill="#005279" stroke="#005279"></path><path d="M150 391.6L171 438.4L194 398.7Z" fill="#003e79" stroke="#003e79"></path><path d="M154 139.6L188 188.3L197 172.4Z" fill="#004a7a" stroke="#004a7a"></path><path d="M120 315.9L141 331.9L149 287Z" fill="#005279" stroke="#005279"></path><path d="M149 287L141 331.9L153 288.1Z" fill="#005478" stroke="#005478"></path><path d="M751 262.1L711 279L758 296Z" fill="#00417a" stroke="#00417a"></path><path d="M703 300L711 279L690 282.1Z" fill="#003e79" stroke="#003e79"></path><path d="M121 384.7L150 391.6L160 351.9Z" fill="#004a7a" stroke="#004a7a"></path><path d="M710 424.6L699 412.7L656 447.6Z" fill="#005478" stroke="#005478"></path><path d="M656 447.6L699 412.7L607 386.7Z" fill="#003878" stroke="#003878"></path><path d="M242 79.9L268 127.6L286 47.7Z" fill="#003878" stroke="#003878"></path><path d="M220 115.7L212 111.7L197 172.4Z" fill="#004a7a" stroke="#004a7a"></path><path d="M367 600L322 526.1L308 554.1Z" fill="#005478" stroke="#005478"></path><path d="M367 600L376 600L397 547.3Z" fill="#003e79" stroke="#003e79"></path><path d="M286 47.7L268 127.6L344 62.7Z" fill="#004f79" stroke="#004f79"></path><path d="M639 147.6L627 93.7L592 95.7Z" fill="#00447a" stroke="#00447a"></path><path d="M592 95.7L620 40.9L553 61.7Z" fill="#004a7a" stroke="#004a7a"></path><path d="M692 122.7L627 93.7L639 147.6Z" fill="#00447a" stroke="#00447a"></path><path d="M319 600L367 600L308 554.1Z" fill="#004a7a" stroke="#004a7a"></path><path d="M376 600L486 600L404 563.1Z" fill="#004f79" stroke="#004f79"></path><path d="M493 586.1L556 600L563 550.1Z" fill="#003b79" stroke="#003b79"></path><path d="M354 0L286 47.7L344 62.7Z" fill="#00447a" stroke="#00447a"></path><path d="M486 600L497 600L493 586.1Z" fill="#004f79" stroke="#004f79"></path><path d="M563 550.1L594 560.1L563 507.4Z" fill="#003b79" stroke="#003b79"></path><path d="M699 412.7L723 358.9L636 347.9Z" fill="#003e79" stroke="#003e79"></path><path d="M556 600L594 560.1L563 550.1Z" fill="#005279" stroke="#005279"></path><path d="M710 498.4L710 424.6L656 447.6Z" fill="#005279" stroke="#005279"></path><path d="M681 510.3L656 447.6L638 497.4Z" fill="#003e79" stroke="#003e79"></path><path d="M699 412.7L724 404.6L723 358.9Z" fill="#00477a" stroke="#00477a"></path><path d="M145 433.6L174 483.3L171 438.4Z" fill="#00477a" stroke="#00477a"></path><path d="M171 438.4L174 483.3L231 454.6Z" fill="#003b79" stroke="#003b79"></path><path d="M309 600L319 600L308 554.1Z" fill="#00417a" stroke="#00417a"></path><path d="M121 272L120 315.9L149 287Z" fill="#004c7a" stroke="#004c7a"></path><path d="M141 331.9L121 384.7L160 351.9Z" fill="#00417a" stroke="#00417a"></path><path d="M150 391.6L145 433.6L171 438.4Z" fill="#005478" stroke="#005478"></path><path d="M121 272L149 287L150 248.1Z" fill="#005478" stroke="#005478"></path><path d="M135 435.4L145 433.6L150 391.6Z" fill="#004c7a" stroke="#004c7a"></path><path d="M75 218.3L150 248.1L162 201.3Z" fill="#003b79" stroke="#003b79"></path><path d="M76 259.1L121 272L75 218.3Z" fill="#005279" stroke="#005279"></path><path d="M174 483.3L190 507.4L231 454.6Z" fill="#004c7a" stroke="#004c7a"></path><path d="M309 600L308 554.1L281 589.1Z" fill="#004a7a" stroke="#004a7a"></path><path d="M744 194.3L710 185.3L693 210.3Z" fill="#005478" stroke="#005478"></path><path d="M693 210.3L710 185.3L655 203.4Z" fill="#003878" stroke="#003878"></path><path d="M751 262.1L693 210.3L711 279Z" fill="#003878" stroke="#003878"></path><path d="M487 0L411 65.9L510 51.9Z" fill="#005478" stroke="#005478"></path><path d="M487 0L420 0L411 65.9Z" fill="#005279" stroke="#005279"></path><path d="M369 47.9L354 0L344 62.7Z" fill="#004c7a" stroke="#004c7a"></path><path d="M521 9.9L510 51.9L553 61.7Z" fill="#004a7a" stroke="#004a7a"></path><path d="M420 0L408 0L411 65.9Z" fill="#005478" stroke="#005478"></path><path d="M636 543.1L638 497.4L609 489.3Z" fill="#005279" stroke="#005279"></path><path d="M736 393.7L779 406.7L773 397.7Z" fill="#005279" stroke="#005279"></path><path d="M710 424.6L724 404.6L699 412.7Z" fill="#003878" stroke="#003878"></path><path d="M408 0L388 0L381 58.9Z" fill="#003b79" stroke="#003b79"></path><path d="M281 589.1L308 554.1L284 541.3Z" fill="#004c7a" stroke="#004c7a"></path><path d="M594 560.1L636 543.1L609 489.3Z" fill="#004c7a" stroke="#004c7a"></path><path d="M622 565.1L636 543.1L594 560.1Z" fill="#00447a" stroke="#00447a"></path><path d="M79 359.7L121 384.7L141 331.9Z" fill="#003e79" stroke="#003e79"></path><path d="M242 79.9L212 79.9L220 115.7Z" fill="#003878" stroke="#003878"></path><path d="M212 111.7L154 139.6L197 172.4Z" fill="#003e79" stroke="#003e79"></path><path d="M184 34.9L212 79.9L219 0Z" fill="#00477a" stroke="#00477a"></path><path d="M253 0L242 79.9L286 47.7Z" fill="#003b79" stroke="#003b79"></path><path d="M209 563.1L281 589.1L284 541.3Z" fill="#005478" stroke="#005478"></path><path d="M618 0L521 9.9L553 61.7Z" fill="#005478" stroke="#005478"></path><path d="M521 9.9L487 0L510 51.9Z" fill="#00417a" stroke="#00417a"></path><path d="M145 433.6L147 492.3L174 483.3Z" fill="#003878" stroke="#003878"></path><path d="M147 492.3L189 522.3L190 507.4Z" fill="#003b79" stroke="#003b79"></path><path d="M121 384.7L135 435.4L150 391.6Z" fill="#003b79" stroke="#003b79"></path><path d="M497 600L556 600L493 586.1Z" fill="#004c7a" stroke="#004c7a"></path><path d="M147 492.3L190 507.4L174 483.3Z" fill="#00477a" stroke="#00477a"></path><path d="M190 507.4L189 522.3L284 541.3Z" fill="#004f79" stroke="#004f79"></path><path d="M388 0L354 0L369 47.9Z" fill="#005279" stroke="#005279"></path><path d="M724 404.6L736 393.7L723 358.9Z" fill="#004c7a" stroke="#004c7a"></path><path d="M758 296L711 279L703 300Z" fill="#00447a" stroke="#00447a"></path><path d="M736 393.7L769 446.6L779 406.7Z" fill="#003e79" stroke="#003e79"></path><path d="M152 111.6L154 139.6L212 111.7Z" fill="#00417a" stroke="#00417a"></path><path d="M686 600L681 510.3L647 530.3Z" fill="#00417a" stroke="#00417a"></path><path d="M606 600L622 565.1L594 560.1Z" fill="#003878" stroke="#003878"></path><path d="M618 0L516 0L521 9.9Z" fill="#005279" stroke="#005279"></path><path d="M521 9.9L516 0L487 0Z" fill="#00477a" stroke="#00477a"></path><path d="M686 600L647 530.3L636 543.1Z" fill="#003878" stroke="#003878"></path><path d="M647 530.3L681 510.3L638 497.4Z" fill="#00417a" stroke="#00417a"></path><path d="M710 185.3L692 122.7L639 147.6Z" fill="#003e79" stroke="#003e79"></path><path d="M627 93.7L620 40.9L592 95.7Z" fill="#00447a" stroke="#00447a"></path><path d="M154 139.6L135 160.4L188 188.3Z" fill="#004f79" stroke="#004f79"></path><path d="M758 296L703 300L723 358.9Z" fill="#003b79" stroke="#003b79"></path><path d="M710 185.3L712 134.4L692 122.7Z" fill="#004c7a" stroke="#004c7a"></path><path d="M354 0L282 12.9L286 47.7Z" fill="#003e79" stroke="#003e79"></path><path d="M647 61.9L620 40.9L627 93.7Z" fill="#004f79" stroke="#004f79"></path><path d="M805 317.9L758 296L723 358.9Z" fill="#00477a" stroke="#00477a"></path><path d="M692 122.7L647 61.9L627 93.7Z" fill="#003e79" stroke="#003e79"></path><path d="M129 501.4L147 492.3L135 435.4Z" fill="#003878" stroke="#003878"></path><path d="M135 435.4L147 492.3L145 433.6Z" fill="#00417a" stroke="#00417a"></path><path d="M189 522.3L209 563.1L284 541.3Z" fill="#00447a" stroke="#00447a"></path><path d="M189 600L209 563.1L165 600Z" fill="#00477a" stroke="#00477a"></path><path d="M281 589.1L189 600L309 600Z" fill="#003878" stroke="#003878"></path><path d="M741 144.6L712 134.4L710 185.3Z" fill="#00417a" stroke="#00417a"></path><path d="M692 122.7L657 51.9L647 61.9Z" fill="#005478" stroke="#005478"></path><path d="M751 262.1L744 194.3L693 210.3Z" fill="#004f79" stroke="#004f79"></path><path d="M796 208.4L744 194.3L751 262.1Z" fill="#004a7a" stroke="#004a7a"></path><path d="M174 69.9L152 111.6L212 111.7Z" fill="#004a7a" stroke="#004a7a"></path><path d="M154 139.6L152 111.6L135 160.4Z" fill="#00417a" stroke="#00417a"></path><path d="M174 69.9L212 111.7L212 79.9Z" fill="#00477a" stroke="#00477a"></path><path d="M86 114.7L119 167.6L135 160.4Z" fill="#005279" stroke="#005279"></path><path d="M135 160.4L119 167.6L162 201.3Z" fill="#00417a" stroke="#00417a"></path><path d="M79 359.7L141 331.9L120 315.9Z" fill="#003b79" stroke="#003b79"></path><path d="M734 123.6L709 120.6L712 134.4Z" fill="#003878" stroke="#003878"></path><path d="M712 134.4L709 120.6L692 122.7Z" fill="#00447a" stroke="#00447a"></path><path d="M742 531.3L710 498.4L737 550.1Z" fill="#003e79" stroke="#003e79"></path><path d="M681 510.3L710 498.4L656 447.6Z" fill="#003b79" stroke="#003b79"></path><path d="M556 600L606 600L594 560.1Z" fill="#003e79" stroke="#003e79"></path><path d="M622 565.1L649 600L636 543.1Z" fill="#005279" stroke="#005279"></path><path d="M730 68.7L657 51.9L692 122.7Z" fill="#004f79" stroke="#004f79"></path><path d="M647 61.9L657 51.9L620 40.9Z" fill="#00447a" stroke="#00447a"></path><path d="M620 40.9L618 0L553 61.7Z" fill="#004f79" stroke="#004f79"></path><path d="M184 34.9L174 69.9L212 79.9Z" fill="#004c7a" stroke="#004c7a"></path><path d="M79 189.3L75 218.3L119 167.6Z" fill="#003e79" stroke="#003e79"></path><path d="M79 359.7L82 374.7L121 384.7Z" fill="#00477a" stroke="#00477a"></path><path d="M54 425.6L68 459.6L135 435.4Z" fill="#00477a" stroke="#00477a"></path><path d="M79 359.7L120 315.9L61 270.1Z" fill="#004a7a" stroke="#004a7a"></path><path d="M76 259.1L120 315.9L121 272Z" fill="#004f79" stroke="#004f79"></path><path d="M113 518.1L129 501.4L65 487.3Z" fill="#005478" stroke="#005478"></path><path d="M147 492.3L129 501.4L189 522.3Z" fill="#003878" stroke="#003878"></path><path d="M75 218.3L121 272L150 248.1Z" fill="#00417a" stroke="#00417a"></path><path d="M282 12.9L253 0L286 47.7Z" fill="#003e79" stroke="#003e79"></path><path d="M354 0L253 0L282 12.9Z" fill="#003b79" stroke="#003b79"></path><path d="M744 194.3L741 144.6L710 185.3Z" fill="#005478" stroke="#005478"></path><path d="M709 120.6L730 68.7L692 122.7Z" fill="#004f79" stroke="#004f79"></path><path d="M741 139.4L741 144.6L821 112.6Z" fill="#00447a" stroke="#00447a"></path><path d="M736 393.7L724 404.6L769 446.6Z" fill="#005279" stroke="#005279"></path><path d="M736 393.7L773 397.7L723 358.9Z" fill="#00447a" stroke="#00447a"></path><path d="M796 208.4L741 144.6L744 194.3Z" fill="#003e79" stroke="#003e79"></path><path d="M823 234.3L751 262.1L829 272Z" fill="#004a7a" stroke="#004a7a"></path><path d="M741 144.6L741 139.4L712 134.4Z" fill="#00447a" stroke="#00447a"></path><path d="M741 139.4L734 123.6L712 134.4Z" fill="#004a7a" stroke="#004a7a"></path><path d="M119 167.6L75 218.3L162 201.3Z" fill="#00447a" stroke="#00447a"></path><path d="M79 189.3L119 167.6L62 165.4Z" fill="#004f79" stroke="#004f79"></path><path d="M635 0L620 40.9L657 51.9Z" fill="#004f79" stroke="#004f79"></path><path d="M635 0L618 0L620 40.9Z" fill="#003b79" stroke="#003b79"></path><path d="M606 600L649 600L622 565.1Z" fill="#005279" stroke="#005279"></path><path d="M769 446.6L724 404.6L710 424.6Z" fill="#005478" stroke="#005478"></path><path d="M769 446.6L710 424.6L755 491.4Z" fill="#004f79" stroke="#004f79"></path><path d="M773 397.7L799 372.9L723 358.9Z" fill="#003b79" stroke="#003b79"></path><path d="M219 0L212 79.9L242 79.9Z" fill="#003e79" stroke="#003e79"></path><path d="M174 69.9L136 72.7L152 111.6Z" fill="#005478" stroke="#005478"></path><path d="M75 218.3L61 270.1L76 259.1Z" fill="#00417a" stroke="#00417a"></path><path d="M76 259.1L61 270.1L120 315.9Z" fill="#003878" stroke="#003878"></path><path d="M54 425.6L121 384.7L82 374.7Z" fill="#00477a" stroke="#00477a"></path><path d="M62 165.4L119 167.6L65 145.6Z" fill="#004f79" stroke="#004f79"></path><path d="M75 218.3L0 242.1L61 270.1Z" fill="#004f79" stroke="#004f79"></path><path d="M755 491.4L710 424.6L710 498.4Z" fill="#004c7a" stroke="#004c7a"></path><path d="M253 0L219 0L242 79.9Z" fill="#005478" stroke="#005478"></path><path d="M655 0L635 0L657 51.9Z" fill="#003b79" stroke="#003b79"></path><path d="M144 568.1L209 563.1L189 522.3Z" fill="#005478" stroke="#005478"></path><path d="M209 563.1L189 600L281 589.1Z" fill="#00417a" stroke="#00417a"></path><path d="M62 165.4L67 203.4L79 189.3Z" fill="#004c7a" stroke="#004c7a"></path><path d="M79 189.3L67 203.4L75 218.3Z" fill="#005478" stroke="#005478"></path><path d="M120 51.9L136 72.7L184 34.9Z" fill="#004a7a" stroke="#004a7a"></path><path d="M184 34.9L136 72.7L174 69.9Z" fill="#003e79" stroke="#003e79"></path><path d="M742 531.3L755 491.4L710 498.4Z" fill="#004c7a" stroke="#004c7a"></path><path d="M68 459.6L129 501.4L135 435.4Z" fill="#003878" stroke="#003878"></path><path d="M129 501.4L144 568.1L189 522.3Z" fill="#00447a" stroke="#00447a"></path><path d="M219 0L213 0L184 34.9Z" fill="#003e79" stroke="#003e79"></path><path d="M844 447.6L799 372.9L779 406.7Z" fill="#005279" stroke="#005279"></path><path d="M779 406.7L799 372.9L773 397.7Z" fill="#003e79" stroke="#003e79"></path><path d="M844 447.6L779 406.7L769 446.6Z" fill="#004a7a" stroke="#004a7a"></path><path d="M799 372.9L805 317.9L723 358.9Z" fill="#004a7a" stroke="#004a7a"></path><path d="M113 518.1L144 568.1L129 501.4Z" fill="#00477a" stroke="#00477a"></path><path d="M823 234.3L796 208.4L751 262.1Z" fill="#005478" stroke="#005478"></path><path d="M734 70.9L709 120.6L734 123.6Z" fill="#00417a" stroke="#00417a"></path><path d="M691 0L655 0L657 51.9Z" fill="#00447a" stroke="#00447a"></path><path d="M730 68.7L709 120.6L734 70.9Z" fill="#003b79" stroke="#003b79"></path><path d="M737 550.1L710 498.4L681 510.3Z" fill="#00417a" stroke="#00417a"></path><path d="M755 491.4L786 475.4L769 446.6Z" fill="#004a7a" stroke="#004a7a"></path><path d="M734 70.9L734 123.6L736 68.7Z" fill="#003878" stroke="#003878"></path><path d="M54 425.6L135 435.4L121 384.7Z" fill="#004c7a" stroke="#004c7a"></path><path d="M113 518.1L97 540.1L144 568.1Z" fill="#00477a" stroke="#00477a"></path><path d="M54 425.6L82 374.7L0 352.7Z" fill="#005279" stroke="#005279"></path><path d="M649 600L686 600L636 543.1Z" fill="#00417a" stroke="#00417a"></path><path d="M0 352.7L82 374.7L79 359.7Z" fill="#004f79" stroke="#004f79"></path><path d="M736 68.7L734 123.6L819 100.6Z" fill="#00447a" stroke="#00447a"></path><path d="M735 27.9L691 0L657 51.9Z" fill="#004f79" stroke="#004f79"></path><path d="M146 600L165 600L144 568.1Z" fill="#004a7a" stroke="#004a7a"></path><path d="M144 568.1L165 600L209 563.1Z" fill="#003878" stroke="#003878"></path><path d="M86 114.7L135 160.4L152 111.6Z" fill="#005279" stroke="#005279"></path><path d="M0 242.1L19 287L61 270.1Z" fill="#003878" stroke="#003878"></path><path d="M61 270.1L12 324.9L79 359.7Z" fill="#003e79" stroke="#003e79"></path><path d="M136 72.7L86 114.7L152 111.6Z" fill="#003b79" stroke="#003b79"></path><path d="M120 51.9L86 114.7L136 72.7Z" fill="#004c7a" stroke="#004c7a"></path><path d="M686 600L737 550.1L681 510.3Z" fill="#00417a" stroke="#00417a"></path><path d="M797 521.3L786 475.4L755 491.4Z" fill="#003e79" stroke="#003e79"></path><path d="M821 112.6L734 123.6L741 139.4Z" fill="#003b79" stroke="#003b79"></path><path d="M734 70.9L736 68.7L730 68.7Z" fill="#00477a" stroke="#00477a"></path><path d="M776 532.3L755 491.4L742 531.3Z" fill="#003878" stroke="#003878"></path><path d="M799 372.9L821 348.7L805 317.9Z" fill="#003e79" stroke="#003e79"></path><path d="M829 272L751 262.1L758 296Z" fill="#004c7a" stroke="#004c7a"></path><path d="M879 360.9L821 348.7L799 372.9Z" fill="#00417a" stroke="#00417a"></path><path d="M86 114.7L65 145.6L119 167.6Z" fill="#004f79" stroke="#004f79"></path><path d="M132 0L120 51.9L184 34.9Z" fill="#005279" stroke="#005279"></path><path d="M0 165.4L62 165.4L0 163.6Z" fill="#003878" stroke="#003878"></path><path d="M65 487.3L129 501.4L68 459.6Z" fill="#005478" stroke="#005478"></path><path d="M65 487.3L97 540.1L113 518.1Z" fill="#00417a" stroke="#00417a"></path><path d="M46 492.4L65 487.3L68 459.6Z" fill="#00477a" stroke="#00477a"></path><path d="M107 600L146 600L144 568.1Z" fill="#004f79" stroke="#004f79"></path><path d="M829 272L758 296L805 317.9Z" fill="#005279" stroke="#005279"></path><path d="M796 208.4L821 112.6L741 144.6Z" fill="#003b79" stroke="#003b79"></path><path d="M833 278.1L829 272L805 317.9Z" fill="#005478" stroke="#005478"></path><path d="M735 27.9L657 51.9L730 68.7Z" fill="#005279" stroke="#005279"></path><path d="M0 312.9L19 287L0 286Z" fill="#004c7a" stroke="#004c7a"></path><path d="M0 286L19 287L0 242.1Z" fill="#003878" stroke="#003878"></path><path d="M0 455.4L46 492.4L68 459.6Z" fill="#003b79" stroke="#003b79"></path><path d="M821 348.7L833 278.1L805 317.9Z" fill="#005478" stroke="#005478"></path><path d="M829 272L834 262L823 234.3Z" fill="#004f79" stroke="#004f79"></path><path d="M842 203.4L824 211.3L823 234.3Z" fill="#00447a" stroke="#00447a"></path><path d="M823 234.3L824 211.3L796 208.4Z" fill="#003b79" stroke="#003b79"></path><path d="M833 278.1L834 262L829 272Z" fill="#005279" stroke="#005279"></path><path d="M686 600L718 600L737 550.1Z" fill="#004f79" stroke="#004f79"></path><path d="M737 550.1L770 541.1L742 531.3Z" fill="#004f79" stroke="#004f79"></path><path d="M778 590.1L770 541.1L737 550.1Z" fill="#004a7a" stroke="#004a7a"></path><path d="M786 475.4L844 447.6L769 446.6Z" fill="#00417a" stroke="#00417a"></path><path d="M770 541.1L776 532.3L742 531.3Z" fill="#003e79" stroke="#003e79"></path><path d="M19 287L12 324.9L61 270.1Z" fill="#00477a" stroke="#00477a"></path><path d="M736 68.7L735 27.9L730 68.7Z" fill="#005279" stroke="#005279"></path><path d="M785 0L735 27.9L736 68.7Z" fill="#004a7a" stroke="#004a7a"></path><path d="M65 487.3L46 492.4L97 540.1Z" fill="#004c7a" stroke="#004c7a"></path><path d="M97 540.1L107 600L144 568.1Z" fill="#005478" stroke="#005478"></path><path d="M0 455.4L68 459.6L54 425.6Z" fill="#00477a" stroke="#00477a"></path><path d="M19 287L0 312.9L12 324.9Z" fill="#004a7a" stroke="#004a7a"></path><path d="M12 324.9L0 352.7L79 359.7Z" fill="#00477a" stroke="#00477a"></path><path d="M75 218.3L67 203.4L0 242.1Z" fill="#003e79" stroke="#003e79"></path><path d="M799 600L797 521.3L770 541.1Z" fill="#004f79" stroke="#004f79"></path><path d="M770 541.1L797 521.3L776 532.3Z" fill="#003e79" stroke="#003e79"></path><path d="M776 532.3L797 521.3L755 491.4Z" fill="#003e79" stroke="#003e79"></path><path d="M900 291.1L866 257.1L833 278.1Z" fill="#003b79" stroke="#003b79"></path><path d="M0 242.1L67 203.4L0 188.3Z" fill="#00417a" stroke="#00417a"></path><path d="M213 0L132 0L184 34.9Z" fill="#003b79" stroke="#003b79"></path><path d="M120 51.9L61 51.9L86 114.7Z" fill="#003e79" stroke="#003e79"></path><path d="M0 188.3L67 203.4L62 165.4Z" fill="#003e79" stroke="#003e79"></path><path d="M0 312.9L0 352.7L12 324.9Z" fill="#00447a" stroke="#00447a"></path><path d="M866 257.1L842 203.4L823 234.3Z" fill="#003e79" stroke="#003e79"></path><path d="M824 211.3L842 203.4L796 208.4Z" fill="#004a7a" stroke="#004a7a"></path><path d="M866 257.1L823 234.3L834 262Z" fill="#004a7a" stroke="#004a7a"></path><path d="M42 578.1L107 600L97 540.1Z" fill="#00447a" stroke="#00447a"></path><path d="M0 188.3L62 165.4L0 165.4Z" fill="#00477a" stroke="#00477a"></path><path d="M846 543.1L818 501.4L797 521.3Z" fill="#00477a" stroke="#00477a"></path><path d="M797 521.3L818 501.4L786 475.4Z" fill="#004f79" stroke="#004f79"></path><path d="M833 278.1L866 257.1L834 262Z" fill="#004a7a" stroke="#004a7a"></path><path d="M818 501.4L844 447.6L786 475.4Z" fill="#003878" stroke="#003878"></path><path d="M0 352.7L0 421.6L54 425.6Z" fill="#003878" stroke="#003878"></path><path d="M46 492.4L23 524.3L97 540.1Z" fill="#004f79" stroke="#004f79"></path><path d="M842 203.4L821 112.6L796 208.4Z" fill="#005279" stroke="#005279"></path><path d="M900 306L833 278.1L821 348.7Z" fill="#004f79" stroke="#004f79"></path><path d="M849 121.7L819 100.6L821 112.6Z" fill="#003878" stroke="#003878"></path><path d="M12 113.7L65 145.6L86 114.7Z" fill="#004f79" stroke="#004f79"></path><path d="M823 73.7L819 100.6L849 121.7Z" fill="#005279" stroke="#005279"></path><path d="M821 112.6L819 100.6L734 123.6Z" fill="#00477a" stroke="#00477a"></path><path d="M60 0L61 51.9L120 51.9Z" fill="#005279" stroke="#005279"></path><path d="M887 484.3L883 439.6L844 447.6Z" fill="#00477a" stroke="#00477a"></path><path d="M718 600L778 590.1L737 550.1Z" fill="#003b79" stroke="#003b79"></path><path d="M0 163.6L62 165.4L65 145.6Z" fill="#003878" stroke="#003878"></path><path d="M0 421.6L0 455.4L54 425.6Z" fill="#00417a" stroke="#00417a"></path><path d="M12 113.7L0 163.6L65 145.6Z" fill="#004c7a" stroke="#004c7a"></path><path d="M844 447.6L879 360.9L799 372.9Z" fill="#003e79" stroke="#003e79"></path><path d="M718 600L778 600L778 590.1Z" fill="#004c7a" stroke="#004c7a"></path><path d="M778 590.1L799 600L770 541.1Z" fill="#005478" stroke="#005478"></path><path d="M0 500.3L23 524.3L46 492.4Z" fill="#004f79" stroke="#004f79"></path><path d="M61 51.9L12 113.7L86 114.7Z" fill="#004f79" stroke="#004f79"></path><path d="M849 121.7L821 112.6L842 203.4Z" fill="#005478" stroke="#005478"></path><path d="M819 100.6L823 73.7L736 68.7Z" fill="#004f79" stroke="#004f79"></path><path d="M735 27.9L785 0L691 0Z" fill="#00477a" stroke="#00477a"></path><path d="M900 161.4L849 121.7L842 203.4Z" fill="#003e79" stroke="#003e79"></path><path d="M0 455.4L0 500.3L46 492.4Z" fill="#004c7a" stroke="#004c7a"></path><path d="M25 600L42 578.1L0 595.1Z" fill="#005478" stroke="#005478"></path><path d="M23 524.3L42 578.1L97 540.1Z" fill="#004c7a" stroke="#004c7a"></path><path d="M778 600L799 600L778 590.1Z" fill="#004f79" stroke="#004f79"></path><path d="M900 399.7L900 395.6L879 360.9Z" fill="#005478" stroke="#005478"></path><path d="M879 360.9L900 306L821 348.7Z" fill="#00417a" stroke="#00417a"></path><path d="M866 257.1L900 219.3L842 203.4Z" fill="#005279" stroke="#005279"></path><path d="M900 357.9L900 306L879 360.9Z" fill="#005478" stroke="#005478"></path><path d="M900 306L900 291.1L833 278.1Z" fill="#004c7a" stroke="#004c7a"></path><path d="M821 0L785 0L823 73.7Z" fill="#005478" stroke="#005478"></path><path d="M823 73.7L785 0L736 68.7Z" fill="#00447a" stroke="#00447a"></path><path d="M887 484.3L844 447.6L818 501.4Z" fill="#004c7a" stroke="#004c7a"></path><path d="M900 395.6L900 357.9L879 360.9Z" fill="#003878" stroke="#003878"></path><path d="M132 0L60 0L120 51.9Z" fill="#004f79" stroke="#004f79"></path><path d="M61 51.9L0 75.9L12 113.7Z" fill="#003e79" stroke="#003e79"></path><path d="M799 600L846 543.1L797 521.3Z" fill="#003878" stroke="#003878"></path><path d="M900 399.7L844 447.6L883 439.6Z" fill="#00417a" stroke="#00417a"></path><path d="M900 399.7L879 360.9L844 447.6Z" fill="#003e79" stroke="#003e79"></path><path d="M900 452.4L900 399.7L883 439.6Z" fill="#004a7a" stroke="#004a7a"></path><path d="M900 291.1L900 219.3L866 257.1Z" fill="#003e79" stroke="#003e79"></path><path d="M0 58.7L0 75.9L61 51.9Z" fill="#00447a" stroke="#00447a"></path><path d="M12 113.7L0 75.9L0 163.6Z" fill="#00477a" stroke="#00477a"></path><path d="M846 543.1L887 484.3L818 501.4Z" fill="#003878" stroke="#003878"></path><path d="M887 484.3L900 452.4L883 439.6Z" fill="#005478" stroke="#005478"></path><path d="M34 0L0 58.7L61 51.9Z" fill="#00477a" stroke="#00477a"></path><path d="M0 595.1L42 578.1L23 524.3Z" fill="#004a7a" stroke="#004a7a"></path><path d="M42 578.1L25 600L107 600Z" fill="#004a7a" stroke="#004a7a"></path><path d="M900 219.3L900 161.4L842 203.4Z" fill="#003b79" stroke="#003b79"></path><path d="M845 6.9L821 0L823 73.7Z" fill="#003e79" stroke="#003e79"></path><path d="M900 161.4L900 157.6L849 121.7Z" fill="#004c7a" stroke="#004c7a"></path><path d="M60 0L34 0L61 51.9Z" fill="#00417a" stroke="#00417a"></path><path d="M837 0L821 0L845 6.9Z" fill="#004c7a" stroke="#004c7a"></path><path d="M846 543.1L893 496.4L887 484.3Z" fill="#004a7a" stroke="#004a7a"></path><path d="M887 484.3L900 498.3L900 452.4Z" fill="#004f79" stroke="#004f79"></path><path d="M900 498.3L893 496.4L900 537.1Z" fill="#004f79" stroke="#004f79"></path><path d="M799 600L841 600L846 543.1Z" fill="#005279" stroke="#005279"></path><path d="M900 537.1L893 496.4L846 543.1Z" fill="#00477a" stroke="#00477a"></path><path d="M893 496.4L900 498.3L887 484.3Z" fill="#004c7a" stroke="#004c7a"></path><path d="M0 500.3L0 595.1L23 524.3Z" fill="#004f79" stroke="#004f79"></path><path d="M845 6.9L823 73.7L900 66.9Z" fill="#003b79" stroke="#003b79"></path><path d="M0 595.1L0 600L25 600Z" fill="#004c7a" stroke="#004c7a"></path><path d="M894 76.9L823 73.7L849 121.7Z" fill="#005279" stroke="#005279"></path><path d="M900 157.6L900 89.7L849 121.7Z" fill="#00447a" stroke="#00447a"></path><path d="M900 89.7L894 76.9L849 121.7Z" fill="#005478" stroke="#005478"></path><path d="M900 600L900 537.1L846 543.1Z" fill="#00477a" stroke="#00477a"></path><path d="M34 0L0 0L0 58.7Z" fill="#005478" stroke="#005478"></path><path d="M900 89.7L900 66.9L894 76.9Z" fill="#004c7a" stroke="#004c7a"></path><path d="M894 76.9L900 66.9L823 73.7Z" fill="#004f79" stroke="#004f79"></path><path d="M841 600L900 600L846 543.1Z" fill="#00447a" stroke="#00447a"></path><path d="M900 66.9L900 0L845 6.9Z" fill="#004a7a" stroke="#004a7a"></path><path d="M845 6.9L900 0L837 0Z" fill="#005478" stroke="#005478"></path></g></svg>