<svg id="visual" viewBox="0 0 900 600" width="900" height="600" xmlns="http://www.w3.org/2000/svg" xmlns:xlink="http://www.w3.org/1999/xlink" version="1.1"><g stroke-width="1" stroke-linejoin="bevel"><path d="M464.9 269L472.9 218L392.1 271Z" fill="#004a7a" stroke="#004a7a"></path><path d="M472.9 218L370.1 188L392.1 271Z" fill="#005478" stroke="#005478"></path><path d="M472.9 218L373.1 162L370.1 188Z" fill="#005279" stroke="#005279"></path><path d="M597.7 230L513.9 161L472.9 218Z" fill="#005478" stroke="#005478"></path><path d="M472.9 218L513.9 161L373.1 162Z" fill="#003e79" stroke="#003e79"></path><path d="M381.1 78L339.3 153L373.1 162Z" fill="#005478" stroke="#005478"></path><path d="M373.1 162L339.3 153L370.1 188Z" fill="#003878" stroke="#003878"></path><path d="M370.1 188L305.3 185L392.1 271Z" fill="#004c7a" stroke="#004c7a"></path><path d="M419.1 371L499.9 348L464.9 269Z" fill="#004f79" stroke="#004f79"></path><path d="M464.9 269L597.7 230L472.9 218Z" fill="#004f79" stroke="#004f79"></path><path d="M339.3 153L305.3 185L370.1 188Z" fill="#003878" stroke="#003878"></path><path d="M329.3 356L419.1 371L392.1 271Z" fill="#005478" stroke="#005478"></path><path d="M392.1 271L419.1 371L464.9 269Z" fill="#004f79" stroke="#004f79"></path><path d="M287.3 312L329.3 356L392.1 271Z" fill="#004a7a" stroke="#004a7a"></path><path d="M305.3 185L287.3 312L392.1 271Z" fill="#00447a" stroke="#00447a"></path><path d="M513.9 161L381.1 78L373.1 162Z" fill="#004c7a" stroke="#004c7a"></path><path d="M216.5 140L246.5 186L305.3 185Z" fill="#00447a" stroke="#00447a"></path><path d="M587.7 309L597.7 230L464.9 269Z" fill="#00477a" stroke="#00477a"></path><path d="M499.9 348L587.7 309L464.9 269Z" fill="#00417a" stroke="#00417a"></path><path d="M305.3 185L254.5 275L287.3 312Z" fill="#00477a" stroke="#00477a"></path><path d="M419.1 371L463.9 414L499.9 348Z" fill="#005478" stroke="#005478"></path><path d="M499.9 348L588.7 342L587.7 309Z" fill="#00447a" stroke="#00447a"></path><path d="M398.1 445L463.9 414L419.1 371Z" fill="#004a7a" stroke="#004a7a"></path><path d="M287.3 312L272.5 335L329.3 356Z" fill="#00417a" stroke="#00417a"></path><path d="M329.3 356L398.1 445L419.1 371Z" fill="#005478" stroke="#005478"></path><path d="M254.5 275L272.5 335L287.3 312Z" fill="#00477a" stroke="#00477a"></path><path d="M605.7 133L524.9 81L513.9 161Z" fill="#00417a" stroke="#00417a"></path><path d="M513.9 161L524.9 81L381.1 78Z" fill="#004a7a" stroke="#004a7a"></path><path d="M216.5 140L305.3 185L339.3 153Z" fill="#005478" stroke="#005478"></path><path d="M305.3 185L246.5 186L254.5 275Z" fill="#003e79" stroke="#003e79"></path><path d="M587.7 309L615.5 225L597.7 230Z" fill="#005279" stroke="#005279"></path><path d="M597.7 230L605.7 133L513.9 161Z" fill="#003878" stroke="#003878"></path><path d="M552.7 434L588.7 342L499.9 348Z" fill="#003878" stroke="#003878"></path><path d="M587.7 309L688.5 283L615.5 225Z" fill="#003b79" stroke="#003b79"></path><path d="M440.1 0L335.3 64L381.1 78Z" fill="#004a7a" stroke="#004a7a"></path><path d="M381.1 78L335.3 64L339.3 153Z" fill="#003878" stroke="#003878"></path><path d="M615.5 225L605.7 133L597.7 230Z" fill="#004c7a" stroke="#004c7a"></path><path d="M353.3 459L398.1 445L329.3 356Z" fill="#003878" stroke="#003878"></path><path d="M615.5 225L637.5 153L605.7 133Z" fill="#00447a" stroke="#00447a"></path><path d="M605.7 133L611.7 98L524.9 81Z" fill="#004a7a" stroke="#004a7a"></path><path d="M709.4 249L637.5 153L615.5 225Z" fill="#00477a" stroke="#00477a"></path><path d="M637.5 153L611.7 98L605.7 133Z" fill="#003e79" stroke="#003e79"></path><path d="M335.3 64L216.5 140L339.3 153Z" fill="#005478" stroke="#005478"></path><path d="M171.6 205L200.6 339L254.5 275Z" fill="#003e79" stroke="#003e79"></path><path d="M451.9 505L552.7 434L463.9 414Z" fill="#004a7a" stroke="#004a7a"></path><path d="M463.9 414L552.7 434L499.9 348Z" fill="#005279" stroke="#005279"></path><path d="M250.5 427L353.3 459L329.3 356Z" fill="#00447a" stroke="#00447a"></path><path d="M398.1 445L451.9 505L463.9 414Z" fill="#004f79" stroke="#004f79"></path><path d="M466.9 0L440.1 0L524.9 81Z" fill="#004c7a" stroke="#004c7a"></path><path d="M524.9 81L440.1 0L381.1 78Z" fill="#003878" stroke="#003878"></path><path d="M590.7 0L466.9 0L524.9 81Z" fill="#00447a" stroke="#00447a"></path><path d="M552.7 434L640.5 349L588.7 342Z" fill="#004f79" stroke="#004f79"></path><path d="M588.7 342L640.5 349L587.7 309Z" fill="#004a7a" stroke="#004a7a"></path><path d="M171.6 205L254.5 275L246.5 186Z" fill="#003b79" stroke="#003b79"></path><path d="M254.5 275L200.6 339L272.5 335Z" fill="#003e79" stroke="#003e79"></path><path d="M272.5 335L250.5 427L329.3 356Z" fill="#003e79" stroke="#003e79"></path><path d="M171.6 167L171.6 205L246.5 186Z" fill="#004a7a" stroke="#004a7a"></path><path d="M318.3 517L369.1 490L353.3 459Z" fill="#00477a" stroke="#00477a"></path><path d="M353.3 459L369.1 490L398.1 445Z" fill="#00477a" stroke="#00477a"></path><path d="M200.6 339L250.5 427L272.5 335Z" fill="#004f79" stroke="#004f79"></path><path d="M640.5 349L688.5 283L587.7 309Z" fill="#00477a" stroke="#00477a"></path><path d="M260.5 0L209.5 86L335.3 64Z" fill="#00417a" stroke="#00417a"></path><path d="M335.3 64L209.5 86L216.5 140Z" fill="#00417a" stroke="#00417a"></path><path d="M216.5 140L171.6 167L246.5 186Z" fill="#004c7a" stroke="#004c7a"></path><path d="M165.6 100L171.6 167L216.5 140Z" fill="#00417a" stroke="#00417a"></path><path d="M369.1 490L451.9 505L398.1 445Z" fill="#00447a" stroke="#00447a"></path><path d="M440.1 0L290.3 0L335.3 64Z" fill="#004f79" stroke="#004f79"></path><path d="M688.5 283L709.4 249L615.5 225Z" fill="#004c7a" stroke="#004c7a"></path><path d="M641.5 41L590.7 0L611.7 98Z" fill="#004c7a" stroke="#004c7a"></path><path d="M611.7 98L590.7 0L524.9 81Z" fill="#003b79" stroke="#003b79"></path><path d="M641.5 41L611.7 98L637.5 153Z" fill="#003b79" stroke="#003b79"></path><path d="M290.3 0L260.5 0L335.3 64Z" fill="#005279" stroke="#005279"></path><path d="M768.4 142L641.5 41L637.5 153Z" fill="#00477a" stroke="#00477a"></path><path d="M451.9 505L585.7 485L552.7 434Z" fill="#00447a" stroke="#00447a"></path><path d="M552.7 434L685.5 426L640.5 349Z" fill="#005478" stroke="#005478"></path><path d="M752.4 368L752.4 303L688.5 283Z" fill="#00477a" stroke="#00477a"></path><path d="M688.5 283L752.4 303L709.4 249Z" fill="#004c7a" stroke="#004c7a"></path><path d="M209.5 86L165.6 100L216.5 140Z" fill="#005279" stroke="#005279"></path><path d="M80.8 296L200.6 339L171.6 205Z" fill="#005478" stroke="#005478"></path><path d="M167.6 0L165.6 100L209.5 86Z" fill="#004a7a" stroke="#004a7a"></path><path d="M250.5 427L318.3 517L353.3 459Z" fill="#00417a" stroke="#00417a"></path><path d="M369.1 490L440.1 600L451.9 505Z" fill="#00447a" stroke="#00447a"></path><path d="M200.6 339L179.6 425L250.5 427Z" fill="#004f79" stroke="#004f79"></path><path d="M250.5 427L190.6 485L318.3 517Z" fill="#00417a" stroke="#00417a"></path><path d="M131.6 402L179.6 425L200.6 339Z" fill="#003878" stroke="#003878"></path><path d="M131.6 402L200.6 339L109.8 361Z" fill="#005279" stroke="#005279"></path><path d="M585.7 485L685.5 426L552.7 434Z" fill="#005478" stroke="#005478"></path><path d="M749.4 0L647.5 0L641.5 41Z" fill="#00417a" stroke="#00417a"></path><path d="M641.5 41L647.5 0L590.7 0Z" fill="#003878" stroke="#003878"></path><path d="M752.4 368L688.5 283L640.5 349Z" fill="#00447a" stroke="#00447a"></path><path d="M709.4 249L768.4 142L637.5 153Z" fill="#00417a" stroke="#00417a"></path><path d="M545.7 600L625.5 506L585.7 485Z" fill="#00447a" stroke="#00447a"></path><path d="M585.7 485L625.5 506L685.5 426Z" fill="#005279" stroke="#005279"></path><path d="M545.7 600L585.7 485L451.9 505Z" fill="#00447a" stroke="#00447a"></path><path d="M109.8 361L200.6 339L80.8 296Z" fill="#004c7a" stroke="#004c7a"></path><path d="M179.6 425L190.6 485L250.5 427Z" fill="#005279" stroke="#005279"></path><path d="M101.8 135L171.6 205L171.6 167Z" fill="#004f79" stroke="#004f79"></path><path d="M102.8 98L101.8 135L165.6 100Z" fill="#005478" stroke="#005478"></path><path d="M165.6 100L101.8 135L171.6 167Z" fill="#003b79" stroke="#003b79"></path><path d="M131.6 402L190.6 485L179.6 425Z" fill="#004c7a" stroke="#004c7a"></path><path d="M749.4 427L752.4 368L685.5 426Z" fill="#005279" stroke="#005279"></path><path d="M685.5 426L752.4 368L640.5 349Z" fill="#005478" stroke="#005478"></path><path d="M57.8 230L80.8 296L171.6 205Z" fill="#00417a" stroke="#00417a"></path><path d="M260.5 0L167.6 0L209.5 86Z" fill="#00447a" stroke="#00447a"></path><path d="M167.6 0L102.8 98L165.6 100Z" fill="#003b79" stroke="#003b79"></path><path d="M101.8 135L57.8 230L171.6 205Z" fill="#003878" stroke="#003878"></path><path d="M795.2 262L768.4 142L709.4 249Z" fill="#004c7a" stroke="#004c7a"></path><path d="M795.2 262L709.4 249L752.4 303Z" fill="#00447a" stroke="#00447a"></path><path d="M190.6 485L274.5 557L318.3 517Z" fill="#00447a" stroke="#00447a"></path><path d="M318.3 517L440.1 600L369.1 490Z" fill="#003b79" stroke="#003b79"></path><path d="M299.3 600L440.1 600L318.3 517Z" fill="#004f79" stroke="#004f79"></path><path d="M440.1 600L461.9 600L451.9 505Z" fill="#005478" stroke="#005478"></path><path d="M752.4 368L784.2 325L752.4 303Z" fill="#003e79" stroke="#003e79"></path><path d="M784.2 325L795.2 262L752.4 303Z" fill="#005279" stroke="#005279"></path><path d="M0 197L57.8 230L0 189Z" fill="#005279" stroke="#005279"></path><path d="M752.4 368L808.2 386L784.2 325Z" fill="#005478" stroke="#005478"></path><path d="M759.4 508L749.4 427L685.5 426Z" fill="#004a7a" stroke="#004a7a"></path><path d="M461.9 600L545.7 600L451.9 505Z" fill="#005279" stroke="#005279"></path><path d="M625.5 506L759.4 508L685.5 426Z" fill="#004c7a" stroke="#004c7a"></path><path d="M270.5 600L299.3 600L274.5 557Z" fill="#005279" stroke="#005279"></path><path d="M274.5 557L299.3 600L318.3 517Z" fill="#003878" stroke="#003878"></path><path d="M823.2 106L770.4 51L768.4 142Z" fill="#004c7a" stroke="#004c7a"></path><path d="M768.4 142L770.4 51L641.5 41Z" fill="#003e79" stroke="#003e79"></path><path d="M193.6 600L274.5 557L190.6 485Z" fill="#00477a" stroke="#00477a"></path><path d="M193.6 600L270.5 600L274.5 557Z" fill="#003e79" stroke="#003e79"></path><path d="M770.4 51L749.4 0L641.5 41Z" fill="#004c7a" stroke="#004c7a"></path><path d="M840.2 477L808.2 386L749.4 427Z" fill="#004f79" stroke="#004f79"></path><path d="M749.4 427L808.2 386L752.4 368Z" fill="#004a7a" stroke="#004a7a"></path><path d="M900 290L900 208L795.2 262Z" fill="#004f79" stroke="#004f79"></path><path d="M844.2 149L823.2 106L768.4 142Z" fill="#004a7a" stroke="#004a7a"></path><path d="M770.4 51L845.2 0L749.4 0Z" fill="#004c7a" stroke="#004c7a"></path><path d="M844.2 149L768.4 142L795.2 262Z" fill="#004c7a" stroke="#004c7a"></path><path d="M131.6 402L65.8 455L190.6 485Z" fill="#00477a" stroke="#00477a"></path><path d="M109.8 361L65.8 455L131.6 402Z" fill="#004c7a" stroke="#004c7a"></path><path d="M0 394L65.8 455L109.8 361Z" fill="#005279" stroke="#005279"></path><path d="M0 334L109.8 361L80.8 296Z" fill="#00417a" stroke="#00417a"></path><path d="M545.7 600L645.5 600L625.5 506Z" fill="#003e79" stroke="#003e79"></path><path d="M900 208L844.2 149L795.2 262Z" fill="#003878" stroke="#003878"></path><path d="M696.4 600L759.4 508L625.5 506Z" fill="#005478" stroke="#005478"></path><path d="M0 189L57.8 230L101.8 135Z" fill="#003878" stroke="#003878"></path><path d="M57.8 230L0 334L80.8 296Z" fill="#005279" stroke="#005279"></path><path d="M0 189L101.8 135L0 108Z" fill="#003e79" stroke="#003e79"></path><path d="M0 108L101.8 135L102.8 98Z" fill="#004c7a" stroke="#004c7a"></path><path d="M58.8 547L193.6 600L190.6 485Z" fill="#004c7a" stroke="#004c7a"></path><path d="M167.6 0L64.8 0L102.8 98Z" fill="#00447a" stroke="#00447a"></path><path d="M0 197L0 334L57.8 230Z" fill="#005478" stroke="#005478"></path><path d="M64.8 0L0 108L102.8 98Z" fill="#003878" stroke="#003878"></path><path d="M645.5 600L696.4 600L625.5 506Z" fill="#003b79" stroke="#003b79"></path><path d="M0 334L0 394L109.8 361Z" fill="#004a7a" stroke="#004a7a"></path><path d="M65.8 455L58.8 547L190.6 485Z" fill="#005279" stroke="#005279"></path><path d="M900 290L795.2 262L784.2 325Z" fill="#00417a" stroke="#00417a"></path><path d="M844.2 149L900 42L823.2 106Z" fill="#004f79" stroke="#004f79"></path><path d="M823.2 106L845.2 0L770.4 51Z" fill="#003878" stroke="#003878"></path><path d="M900 290L784.2 325L808.2 386Z" fill="#004a7a" stroke="#004a7a"></path><path d="M900 402L900 290L808.2 386Z" fill="#00477a" stroke="#00477a"></path><path d="M804.2 547L840.2 477L759.4 508Z" fill="#005478" stroke="#005478"></path><path d="M759.4 508L840.2 477L749.4 427Z" fill="#00477a" stroke="#00477a"></path><path d="M900 208L900 165L844.2 149Z" fill="#00447a" stroke="#00447a"></path><path d="M900 42L845.2 0L823.2 106Z" fill="#004a7a" stroke="#004a7a"></path><path d="M0 482L58.8 547L65.8 455Z" fill="#005279" stroke="#005279"></path><path d="M696.4 600L804.2 547L759.4 508Z" fill="#004f79" stroke="#004f79"></path><path d="M64.8 0L0 0L0 108Z" fill="#005478" stroke="#005478"></path><path d="M0 394L0 482L65.8 455Z" fill="#00447a" stroke="#00447a"></path><path d="M900 473L900 402L840.2 477Z" fill="#004f79" stroke="#004f79"></path><path d="M840.2 477L900 402L808.2 386Z" fill="#003878" stroke="#003878"></path><path d="M900 165L900 42L844.2 149Z" fill="#003878" stroke="#003878"></path><path d="M0 482L0 531L58.8 547Z" fill="#004a7a" stroke="#004a7a"></path><path d="M58.8 547L48.8 600L193.6 600Z" fill="#003e79" stroke="#003e79"></path><path d="M0 600L48.8 600L58.8 547Z" fill="#005478" stroke="#005478"></path><path d="M900 560L900 473L840.2 477Z" fill="#003e79" stroke="#003e79"></path><path d="M900 42L900 0L845.2 0Z" fill="#00477a" stroke="#00477a"></path><path d="M696.4 600L834.2 600L804.2 547Z" fill="#003b79" stroke="#003b79"></path><path d="M804.2 547L900 560L840.2 477Z" fill="#004a7a" stroke="#004a7a"></path><path d="M0 531L0 600L58.8 547Z" fill="#003e79" stroke="#003e79"></path><path d="M834.2 600L900 560L804.2 547Z" fill="#003b79" stroke="#003b79"></path><path d="M834.2 600L900 600L900 560Z" fill="#004f79" stroke="#004f79"></path></g></svg>